<svg xmlns="http://www.w3.org/2000/svg" viewBox="1838 1534.975 178 108.925">
  <defs>
    <style>
      .cls-1 {
        fill: #fff;
      }
    </style>
  </defs>
  <g id="Group_187" data-name="Group 187" transform="translate(1838 1534.975)">
    <path id="Path_184" data-name="Path 184" class="cls-1" d="M172.687,32.4a29.255,29.255,0,0,0-15.645,4.133c-3.542,1.771-6.494,3.247-12.693,3.247a22.651,22.651,0,0,1-12.693-3.247c-3.542-1.771-7.675-4.133-15.35-4.133a27.318,27.318,0,0,0-15.35,4.133C97.413,38.3,94.461,39.78,88.262,39.78a23.407,23.407,0,0,1-12.693-3.247c-3.542-1.771-7.675-4.133-15.35-4.133a27.318,27.318,0,0,0-15.35,4.133C41.327,38.3,38.375,39.78,32.176,39.78a23.407,23.407,0,0,1-12.693-3.247C14.76,34.466,10.627,32.4,2.952,32.4a2.952,2.952,0,1,0,0,5.9,23.407,23.407,0,0,1,12.693,3.247c3.542,1.771,7.675,4.133,15.35,4.133a27.318,27.318,0,0,0,15.35-4.133C49.887,39.78,52.839,38.3,59.038,38.3a22.651,22.651,0,0,1,12.693,3.247c3.542,1.771,7.675,4.133,15.35,4.133a27.318,27.318,0,0,0,15.35-4.133c3.542-1.771,6.494-3.247,12.693-3.247a22.651,22.651,0,0,1,12.693,3.247c3.542,1.771,7.675,4.133,15.645,4.133s11.808-2.066,15.35-4.133c3.542-1.771,6.494-3.247,12.693-3.247a2.789,2.789,0,0,0,2.952-2.952C174.458,33.581,174.163,32.4,172.687,32.4Z" transform="translate(0 63.242)"/>
    <path id="Path_185" data-name="Path 185" class="cls-1" d="M172.727,54.61a3.1,3.1,0,0,0-2.657-1.476H152.654V46.05c0-6.494-6.789-11.512-15.35-11.512H126.087V24.5a2.789,2.789,0,0,0-2.952-2.952H106.31V2.952A2.789,2.789,0,0,0,103.358,0H76.5a2.789,2.789,0,0,0-2.952,2.952V34.833h-6.2c-8.561,0-15.35,5.018-15.35,11.512V56.972H18.933c-5.018,0-8.856,3.542-8.856,7.97v8.265a3.744,3.744,0,0,0,.3,1.771H5.65a3.1,3.1,0,0,0-2.657,1.476,2.681,2.681,0,0,0,0,2.952L16.276,100.07a3.01,3.01,0,0,0,2.362,1.476,2.255,2.255,0,0,0,1.476-.59A2.9,2.9,0,0,0,21,96.823L10.668,80.587H67.049A4.2,4.2,0,0,0,68.82,80l9.741-7.675h37.489a2.685,2.685,0,0,0,2.362-1.181l10.036-12.1h36.308L162.4,63.466H140.847a2.952,2.952,0,0,0,0,5.9h18.6l-2.952,5.609H146.455a2.952,2.952,0,0,0,0,5.9h6.789L145.57,95.347a3.039,3.039,0,1,0,5.313,2.952l21.549-40.736A2.715,2.715,0,0,0,172.727,54.61ZM120.184,34.833H93.912v-7.38h26.272ZM100.406,5.9v6.2H79.447V5.9Zm-20.663,12.1H100.7v3.542H91.255A2.789,2.789,0,0,0,88.3,24.5V34.833H80.038V18.007Zm47.821,35.128a2.685,2.685,0,0,0-2.362,1.181l-10.036,12.1H77.971a4.2,4.2,0,0,0-1.771.59l-9.741,7.675h-49l-.3-.3a1.993,1.993,0,0,1-1.181-1.771V64.352c0-1.181,1.476-2.066,2.952-2.066H66.459a2.952,2.952,0,0,0,0-5.9H57.9V45.755c0-2.657,3.837-5.609,9.446-5.609h69.665c5.609,0,9.446,2.952,9.446,5.609v7.38Z" transform="translate(4.977)"/>
  </g>
</svg>
