<svg xmlns="http://www.w3.org/2000/svg" viewBox="59 2997 23.73 18.645">
  <defs>
    <style>
      .cls-1 {
        fill: #4e4e4e;
      }
    </style>
  </defs>
  <g id="Group_164" data-name="Group 164" transform="translate(-1025 547)">
    <path id="Path_172" data-name="Path 172" class="cls-1" d="M2.278,60.567q.45.318,2.715,1.887t3.47,2.416q.132.093.563.4t.715.5q.285.192.689.43a4,4,0,0,0,.762.357,2.1,2.1,0,0,0,.662.119h.027a2.1,2.1,0,0,0,.662-.119,4,4,0,0,0,.761-.357q.4-.239.689-.43t.715-.5q.43-.311.563-.4l6.2-4.3a6.291,6.291,0,0,0,1.615-1.629,3.5,3.5,0,0,0,.649-2,2.137,2.137,0,0,0-2.119-2.119H2.119a1.891,1.891,0,0,0-1.569.688A2.673,2.673,0,0,0,0,57.23a3.093,3.093,0,0,0,.728,1.808A6.573,6.573,0,0,0,2.278,60.567Z" transform="translate(1084 2395.18)"/>
    <path id="Path_173" data-name="Path 173" class="cls-1" d="M22.406,185.589q-4.343,2.94-6.595,4.569-.755.556-1.225.867a7.559,7.559,0,0,1-1.251.636,3.81,3.81,0,0,1-1.456.324h-.027a3.812,3.812,0,0,1-1.457-.324,7.562,7.562,0,0,1-1.251-.636q-.47-.311-1.225-.867-1.788-1.311-6.581-4.569A7.015,7.015,0,0,1,0,184.437v10.514a2.04,2.04,0,0,0,.622,1.5,2.04,2.04,0,0,0,1.5.623H21.612a2.125,2.125,0,0,0,2.119-2.119V184.437A7.3,7.3,0,0,1,22.406,185.589Z" transform="translate(1084 2271.575)"/>
  </g>
</svg>
