<svg xmlns="http://www.w3.org/2000/svg" viewBox="1482 1526.993 101 122.807">
  <defs>
    <style>
      .cls-1 {
        fill: #fff;
      }
    </style>
  </defs>
  <g id="Group_189" data-name="Group 189" transform="translate(1482 1526.993)">
    <path id="Path_186" data-name="Path 186" class="cls-1" d="M99.278,16.642,60.83.574A4.078,4.078,0,0,0,59.108,0h-.287c-.574,0-.861,0-1.148.287L1.722,22.668A3.156,3.156,0,0,0,0,25.537v94.4a2.711,2.711,0,0,0,2.869,2.869H98.131A2.711,2.711,0,0,0,101,119.938V19.511A3.37,3.37,0,0,0,99.278,16.642ZM56.239,117.068H5.739V27.259l50.5-20.372Zm39.023,0H61.977V7.46L95.261,21.52Z"/>
    <path id="Path_187" data-name="Path 187" class="cls-1" d="M6.109,50.377H41.4a2.263,2.263,0,0,0,2.3-2.3V34.309a2.192,2.192,0,0,0-.574-1.435A3.076,3.076,0,0,0,41.4,32.3L6.109,34.022A2.156,2.156,0,0,0,4.1,36.03V48.081A2.047,2.047,0,0,0,6.109,50.377ZM8.4,38.326,39.393,36.6v9.469H8.4Z" transform="translate(7.664 60.379)"/>
    <path id="Path_188" data-name="Path 188" class="cls-1" d="M6.109,45.607h0l35.58-3.443A2.156,2.156,0,0,0,43.7,40.155V26.1a2.48,2.48,0,0,0-.861-1.722,2.108,2.108,0,0,0-1.722-.574L5.822,29.539A2.1,2.1,0,0,0,4.1,31.547V43.6a4.078,4.078,0,0,0,.574,1.722C5.248,45.32,5.535,45.607,6.109,45.607ZM8.4,33.556l30.989-4.878v9.469L8.4,41.016Z" transform="translate(7.664 44.49)"/>
    <path id="Path_189" data-name="Path 189" class="cls-1" d="M6.3,40.727h.287l35.293-7.173A2.461,2.461,0,0,0,43.6,31.546V17.486a2.045,2.045,0,0,0-.861-1.722,1.9,1.9,0,0,0-1.722-.287L5.722,24.659A2.461,2.461,0,0,0,4,26.668V38.719a2.48,2.48,0,0,0,.861,1.722A3.12,3.12,0,0,0,6.3,40.727Zm2.3-12.338L39.58,20.355v9.469L8.591,36.137Z" transform="translate(7.477 28.71)"/>
    <path id="Path_190" data-name="Path 190" class="cls-1" d="M6.109,36.058h.574L41.975,25.441a2.158,2.158,0,0,0,1.435-2.009V9.086a2.045,2.045,0,0,0-.861-1.722,1.761,1.761,0,0,0-1.722-.287L5.535,19.7A2.158,2.158,0,0,0,4.1,21.711V33.762a2.045,2.045,0,0,0,.861,1.722A2.175,2.175,0,0,0,6.109,36.058ZM8.4,23.433l30.989-11.19v9.182L8.4,30.893Z" transform="translate(7.664 13.008)"/>
  </g>
</svg>
