<svg id="Layer_1" data-name="Layer 1" xmlns="http://www.w3.org/2000/svg" viewBox="0 0 81.61 52.64"><defs><style>.cls-1{fill:#414141;}</style></defs><title>hotels_icon_v2</title><path class="cls-1" d="M23.82,26.3a7.63,7.63,0,1,0-7.63-7.63,7.67,7.67,0,0,0,7.63,7.63Z" transform="translate(-6.4 -5.64)"/><path class="cls-1" d="M23.82,18.67" transform="translate(-6.4 -5.64)"/><path class="cls-1" d="M32,20.45v6.6H20.26c-5.66,0-5.67,7.31,0,7.3H35.62a3.65,3.65,0,0,0,3.65-3.84V20.45c0-5.5-7.3-5.5-7.3,0Z" transform="translate(-6.4 -5.64)"/><path class="cls-1" d="M40.26,16.52H70.74c4.49,0,7.12,2.87,7.12,6.74v11H40.26V16.52Z" transform="translate(-6.4 -5.64)"/><path class="cls-1" d="M14.74,10.15a4.18,4.18,0,1,0-8.33,0V58.28h8.52V45.87H79.73V58.19H88V21c0-6.33-8.4-6.33-8.38,0V35.85H14.74V10.15Z" transform="translate(-6.4 -5.64)"/></svg>