<svg xmlns="http://www.w3.org/2000/svg" viewBox="0 0 17.26 16.8"><defs><style>.cls-1{fill:#4e4e4e;}</style></defs><title>Recurso 2</title><g id="Capa_2" data-name="Capa 2"><g id="Layer_1" data-name="Layer 1"><path id="Path_82" data-name="Path 82" class="cls-1" d="M14.13,0h-11A3.11,3.11,0,0,0,0,3V13.76a3.11,3.11,0,0,0,3.13,3h11a3.11,3.11,0,0,0,3.13-3V3A3.11,3.11,0,0,0,14.13,0ZM8.63,5A3.38,3.38,0,0,1,12.1,8.27v0a3.38,3.38,0,0,1-3.45,3.3h0A3.38,3.38,0,0,1,5.16,8.31v0A3.38,3.38,0,0,1,8.62,5h0ZM15.56,7v7.16a.66.66,0,0,1-.56.65l-.2,0H2.42a1.06,1.06,0,0,1-.28,0,.66.66,0,0,1-.48-.56v-.11c0-2.4,0-4.76,0-7.13V7H3.24a4.85,4.85,0,0,0,.54,3.89,5.21,5.21,0,0,0,2.17,2,5.53,5.53,0,0,0,2.93.65,5.51,5.51,0,0,0,4.2-2.14A5,5,0,0,0,14,7h1.55a.1.1,0,0,1,0,.08Zm0-2.74A.64.64,0,0,1,15,5H12.83a.69.69,0,0,1-.7-.56v-2a.64.64,0,0,1,.59-.68h2.14a.68.68,0,0,1,.7.56V4.31Z"/></g></g></svg>