<svg xmlns="http://www.w3.org/2000/svg" viewBox="0 0 16.98 18.01"><defs><style>.cls-1{fill:#92ba01;}</style></defs><title>Recurso 2</title><g id="Capa_2" data-name="Capa 2"><g id="Layer_1" data-name="Layer 1"><path id="Path_168" data-name="Path 168" class="cls-1" d="M12,12.67a1.1,1.1,0,0,0-1.56-.11l-.11.11L9.14,13.83a.23.23,0,0,1-.32.06h0c-.25-.14-.53-.25-.76-.4a12.11,12.11,0,0,1-2.92-2.66,6.92,6.92,0,0,1-1-1.68.24.24,0,0,1,.06-.31c.39-.38.77-.76,1.15-1.15a1.11,1.11,0,0,0,.15-1.56L5.3,6l-.91-.92-.94-.94A1.11,1.11,0,0,0,1.87,4l-.1.1C1.38,4.52,1,4.92.6,5.29A1.9,1.9,0,0,0,0,6.58,5.43,5.43,0,0,0,.43,8.92a14.21,14.21,0,0,0,2.52,4.2,15.61,15.61,0,0,0,5.17,4A7.48,7.48,0,0,0,11,18a2.1,2.1,0,0,0,1.8-.69c.33-.37.71-.72,1.07-1.07A1.12,1.12,0,0,0,14,14.67l-.13-.13Z"/><path id="Path_169" data-name="Path 169" class="cls-1" d="M11.64,9.7l1.54-.26A6.92,6.92,0,0,0,7.32,3.75L7.11,5.3A5.35,5.35,0,0,1,11.64,9.7Z"/><path id="Path_170" data-name="Path 170" class="cls-1" d="M14.11,2.91A10.19,10.19,0,0,0,8.27,0l-.2,1.39A8.89,8.89,0,0,1,15.6,8.68L17,8.45A10.27,10.27,0,0,0,14.11,2.91Z"/></g></g></svg>