<svg xmlns="http://www.w3.org/2000/svg" viewBox="0 0 12.99 16.81"><defs><style>.cls-1{fill:#4e4e4e;}</style></defs><title>Path 86</title><g id="Capa_2" data-name="Capa 2"><g id="Layer_1" data-name="Layer 1"><path id="Path_86" data-name="Path 86" class="cls-1" d="M7.8,12.16a2.72,2.72,0,0,1-2.36-1.22L4.77,13.6A11.35,11.35,0,0,1,3,16.77c-.05.08-.22.05-.22-.05a9.34,9.34,0,0,1,0-3.65C3,12.27,4,7.78,4,7.78a3.83,3.83,0,0,1-.3-1.52c0-1.43.84-2.49,1.87-2.49A1.3,1.3,0,0,1,6.9,5.23a23.12,23.12,0,0,1-.84,3.44,1.5,1.5,0,0,0,1.52,1.87c1.84,0,3.06-2.35,3.06-5.14,0-2.11-1.43-3.71-4-3.71A4.53,4.53,0,0,0,1.87,6q0,.14,0,.28a2.72,2.72,0,0,0,.65,1.9c.19.22.22.3.13.54s-.16.6-.19.78a.34.34,0,0,1-.4.27L2,9.76c-1.35-.55-2-2-2-3.68C0,3.31,2.3,0,6.88,0A5.79,5.79,0,0,1,13,5.46v.1C13,9.35,10.88,12.16,7.8,12.16Z"/></g></g></svg>