<svg xmlns="http://www.w3.org/2000/svg" viewBox="1036 1540.308 200 89.928">
  <defs>
    <style>
      .cls-1 {
        fill: #fff;
      }
    </style>
  </defs>
  <g id="Group_186" data-name="Group 186" transform="translate(1036 1540.309)">
    <path id="Path_182" data-name="Path 182" class="cls-1" d="M54.645,16.1H31.028A2.861,2.861,0,0,0,28,19.128a2.861,2.861,0,0,0,3.028,3.028H54.645a2.861,2.861,0,0,0,3.028-3.028A2.861,2.861,0,0,0,54.645,16.1Z" transform="translate(56.781 32.649)"/>
    <path id="Path_183" data-name="Path 183" class="cls-1" d="M197.721,57.53l-72.064-11.2a42.092,42.092,0,0,0-3.331-6.359h16.956a3.028,3.028,0,1,0,0-6.056h-21.2c-4.239-5.147-9.386-8.478-14.837-9.689V3.028a3.028,3.028,0,1,0-6.056,0v21.2c-5.147.908-10.6,4.542-14.837,9.689h-21.5a3.028,3.028,0,0,0,0,6.056H77.817a64.071,64.071,0,0,0-3.331,6.359L2.422,57.53A3.26,3.26,0,0,0,0,60.558v7.57a2.749,2.749,0,0,0,.908,2.12,2.749,2.749,0,0,0,2.12.908h0l14.837-.3A9.952,9.952,0,0,0,16.653,76a10.9,10.9,0,1,0,21.8,0,12.338,12.338,0,0,0-1.514-5.45h7.57A10.456,10.456,0,0,0,43,76a10.9,10.9,0,1,0,21.8,0,10.456,10.456,0,0,0-1.514-5.45h9.084c3.028,12.112,13.02,19.378,27.554,19.378s24.223-7.267,27.554-19.378h9.084A11.332,11.332,0,0,0,135.044,76a10.9,10.9,0,1,0,21.8,0,11.332,11.332,0,0,0-1.514-5.45h7.57A10.456,10.456,0,0,0,161.387,76a10.9,10.9,0,1,0,21.8,0,14.264,14.264,0,0,0-1.211-5.147l14.837.3h0a3.1,3.1,0,0,0,3.028-3.028v-7.57C200.446,59.044,199.235,57.833,197.721,57.53ZM27.554,80.845A4.845,4.845,0,1,1,32.4,76,4.783,4.783,0,0,1,27.554,80.845Zm26.645,0A4.845,4.845,0,1,1,59.044,76,4.783,4.783,0,0,1,54.2,80.845Zm91.745,0A4.845,4.845,0,1,1,150.789,76,4.783,4.783,0,0,1,145.944,80.845Zm26.948,0A4.845,4.845,0,1,1,177.737,76,4.783,4.783,0,0,1,172.893,80.845ZM6.056,65.1V63.283L72.669,52.988a40.359,40.359,0,0,0-.908,8.478v3.028Zm94.167,18.773c-6.661,0-22.406-2.12-22.406-22.406,0-16.048,12.717-31.49,22.406-31.49s22.406,15.442,22.406,31.49C122.63,81.45,106.885,83.873,100.223,83.873ZM194.391,65.1l-65.705-.606V61.466a40.359,40.359,0,0,0-.908-8.478l66.614,10.295Z"/>
  </g>
</svg>
