<svg xmlns="http://www.w3.org/2000/svg" viewBox="0 0 121.19 94.67"><defs><style>.cls-1{fill:#fff;}</style></defs><title>shop_place</title><g id="Layer_2" data-name="Layer 2"><g id="Layer_1-2" data-name="Layer 1"><path class="cls-1" d="M120.7,35.67,105.59,14.53v-8A6.54,6.54,0,0,0,99.05,0H22.14A6.54,6.54,0,0,0,15.6,6.54v8L.49,35.67a2.65,2.65,0,0,0,2.15,4.18h13V88.13a6.54,6.54,0,0,0,6.54,6.54H73A2.64,2.64,0,0,0,75.61,92V55.7H88V92a2.64,2.64,0,0,0,2.64,2.64h8.42a6.54,6.54,0,0,0,6.54-6.54V39.85h13a2.65,2.65,0,0,0,2.15-4.18ZM22.14,5.29H99.05a1.27,1.27,0,0,1,1.26,1.25v6.19H20.89V6.54A1.26,1.26,0,0,1,22.14,5.29Zm78.17,82.84a1.28,1.28,0,0,1-1.26,1.26H93.28V53.05a2.65,2.65,0,0,0-2.65-2.64H73a2.64,2.64,0,0,0-2.64,2.64V89.39H22.14a1.27,1.27,0,0,1-1.25-1.26V39.85h79.42ZM7.78,34.56,19.6,18h81.83l.28.16,11.7,16.38Z"/><path class="cls-1" d="M29.68,80.9H62.16a2.64,2.64,0,0,0,2.64-2.64v-25a2.64,2.64,0,0,0-2.64-2.64H29.68A2.65,2.65,0,0,0,27,53.31v25A2.65,2.65,0,0,0,29.68,80.9ZM32.32,56H59.51V75.62H32.32Z"/></g></g></svg>