<svg xmlns="http://www.w3.org/2000/svg" viewBox="0 0 80.23 108.34"><defs><style>.cls-1{fill:#fff;}</style></defs><title>shop_bag</title><g id="Layer_2" data-name="Layer 2"><g id="Layer_1-2" data-name="Layer 1"><path class="cls-1" d="M80.22,94.6l-4.3-55.14A13.54,13.54,0,0,0,62.39,26.05H60.86V20.74a20.75,20.75,0,0,0-41.49,0v5.31H17.84A13.54,13.54,0,0,0,4.31,39.46L0,94.6a1.48,1.48,0,0,0,0,.21,13.55,13.55,0,0,0,13.53,13.53H66.71A13.54,13.54,0,0,0,80.23,94.81,1.48,1.48,0,0,0,80.22,94.6ZM24.87,20.74a15.25,15.25,0,0,1,30.5,0v5.31H24.87Zm41.84,82.1H13.53a8,8,0,0,1-8-7.93L9.8,39.79c0-.07,0-.15,0-.22a8,8,0,0,1,8-8h1.53v6a2.75,2.75,0,0,0,5.5,0v-6h30.5v6a2.75,2.75,0,0,0,5.49,0v-6h1.53a8,8,0,0,1,8,8c0,.07,0,.15,0,.22l4.31,55.12A8,8,0,0,1,66.71,102.84Z"/></g></g></svg>