<svg xmlns="http://www.w3.org/2000/svg" viewBox="0 0 17.14 13.95"><defs><style>.cls-1{fill:#4e4e4e;}</style></defs><title>Path 85</title><g id="Capa_2" data-name="Capa 2"><g id="Layer_1" data-name="Layer 1"><path id="Path_85" data-name="Path 85" class="cls-1" d="M15.4,3.48v.46A10,10,0,0,1,5.51,14H5.39A10,10,0,0,1,0,12.37c.28,0,.56.05.84.05a7,7,0,0,0,4.37-1.51A3.55,3.55,0,0,1,1.92,8.46a2.78,2.78,0,0,0,.66.08,3.48,3.48,0,0,0,.92-.12A3.53,3.53,0,0,1,.66,5v0a3.44,3.44,0,0,0,1.61.43A3.53,3.53,0,0,1,.71,2.41,3.44,3.44,0,0,1,1.2.64,10.07,10.07,0,0,0,8.45,4.32,3.93,3.93,0,0,1,9,1.39,1.68,1.68,0,0,1,9.53.8a3.63,3.63,0,0,1,4.9.33A7.7,7.7,0,0,0,16.68.29a3.46,3.46,0,0,1-1.56,1.94,6.77,6.77,0,0,0,2-.56A6.9,6.9,0,0,1,15.4,3.48Z"/></g></g></svg>