<svg xmlns="http://www.w3.org/2000/svg" viewBox="0 0 20.7 13.94"><defs><style>.cls-1{fill:#4e4e4e;}</style></defs><title>Recurso 3</title><g id="Capa_2" data-name="Capa 2"><g id="Layer_1" data-name="Layer 1"><path id="Path_83" data-name="Path 83" class="cls-1" d="M20.55,3.08a3,3,0,0,0-3-3h0C15.33,0,13,0,10.71,0H10C7.66,0,5.37,0,3.14.15a3,3,0,0,0-3,2.95h0C0,4.38,0,5.67,0,7s0,2.56.15,3.86a3,3,0,0,0,3,3h0c2.35.09,4.77.15,7.21.15s4.86,0,7.21-.15a3,3,0,0,0,3-2.95h0c.09-1.3.15-2.6.15-3.86S20.64,4.38,20.55,3.08Zm-6.43,4.5-5.7,3.29c-.6.36-1.09.06-1.09-.63V3.65c0-.69.48-1,1.09-.63l5.7,3.32a.66.66,0,0,1,0,1.24Z"/></g></g></svg>